<svg width="48" height="128" viewBox="0 0 48 128" fill="none" xmlns="http://www.w3.org/2000/svg">
<g clip-path="url(#clip0_1_44)">
<mask id="mask0_1_44" style="mask-type:luminance" maskUnits="userSpaceOnUse" x="1" y="0" width="48" height="51">
<path d="M48.3333 0H1V50.6667H48.3333V0Z" fill="white"/>
</mask>
<g mask="url(#mask0_1_44)">
<path d="M48.1334 0H26.0667C12.2667 0 1 11.2667 1 25.0667C1 38.8667 12.2667 50.1333 26.0667 50.1333H48.1334V0Z" fill="#4D4D4D"/>
</g>
<mask id="mask1_1_44" style="mask-type:luminance" maskUnits="userSpaceOnUse" x="1" y="77" width="48" height="51">
<path d="M48.3333 77H1V127.667H48.3333V77Z" fill="white"/>
</mask>
<g mask="url(#mask1_1_44)">
<path d="M48.1334 77H26.0667C12.2667 77 1 88.2666 1 102.067C1 115.867 12.2667 127.134 26.0667 127.134H48.1334V77Z" fill="white"/>
</g>
<path d="M24.4977 17.2845C19.9621 17.2845 16.2854 20.9621 16.2854 25.4963C16.2854 30.033 19.9621 33.7106 24.4977 33.7106C29.0332 33.7106 32.71 30.033 32.71 25.4963C32.71 20.9621 29.0332 17.2845 24.4977 17.2845ZM22.7313 15.7886H26.2665C26.43 15.7886 26.5812 15.708 26.6764 15.5738C26.7691 15.442 26.7911 15.2688 26.735 15.115L24.9661 10.327C24.8929 10.1293 24.7075 10 24.4977 10C24.2879 10 24.1024 10.1318 24.0292 10.327L22.2604 15.1175C22.2043 15.2712 22.2263 15.442 22.319 15.5762C22.4141 15.7105 22.5678 15.7886 22.7313 15.7886ZM32.6124 19.8835C32.7051 19.9787 32.8344 20.0299 32.9637 20.0299C32.993 20.0299 33.0222 20.0275 33.0515 20.0226C33.2126 19.9933 33.3467 19.8884 33.4175 19.7395L35.5547 15.1004C35.6426 14.91 35.6011 14.6879 35.4547 14.5391C35.3059 14.3902 35.0814 14.3512 34.8911 14.4366L30.2555 16.5768C30.1067 16.6451 30.0018 16.7818 29.9725 16.9428C29.9433 17.1039 29.9969 17.2674 30.1092 17.3846L32.6124 19.8835ZM39.6682 25.0302L34.8765 23.2634C34.7228 23.2073 34.552 23.2292 34.4178 23.322C34.2836 23.4147 34.2055 23.566 34.2055 23.7295L34.208 27.2656C34.208 27.4291 34.2885 27.5829 34.4227 27.6756C34.5081 27.7317 34.6081 27.7634 34.7081 27.7634C34.7667 27.7634 34.8252 27.7537 34.8814 27.7317L39.6731 25.9649C39.8683 25.8941 40 25.7062 40 25.4939C39.9951 25.2889 39.8658 25.1034 39.6682 25.0302ZM33.4175 31.258C33.3838 31.1849 33.3329 31.1209 33.2692 31.0716C33.2055 31.0224 33.1308 30.9892 33.0515 30.975C32.8905 30.9481 32.7246 30.9994 32.6124 31.1141L30.1116 33.6154C29.9969 33.7301 29.9433 33.8961 29.9725 34.0572C30.0018 34.2158 30.1067 34.3549 30.2555 34.4232L34.8936 36.561C34.9594 36.5927 35.0302 36.6049 35.1034 36.6049C35.2327 36.6049 35.3596 36.5536 35.4547 36.4585C35.6035 36.3096 35.6426 36.0875 35.5547 35.8972L33.4175 31.258ZM26.2641 35.2066L22.7288 35.209C22.5654 35.209 22.4141 35.2895 22.3214 35.4238C22.2287 35.558 22.2067 35.7288 22.2604 35.8801L24.0292 40.673C24.1024 40.8682 24.2879 41 24.4977 41C24.7075 41 24.8929 40.8682 24.9661 40.673L26.735 35.8801C26.7911 35.7264 26.7691 35.5555 26.6764 35.4213C26.5812 35.2871 26.43 35.2066 26.2641 35.2066ZM16.383 31.1141C16.2683 30.9994 16.1049 30.9481 15.9438 30.975C15.7828 31.0043 15.6462 31.1092 15.5779 31.258L13.4406 35.8972C13.3528 36.0875 13.3943 36.3121 13.5431 36.4585C13.6151 36.5307 13.7075 36.579 13.8079 36.5969C13.9083 36.6148 14.0117 36.6014 14.1042 36.5585L18.7423 34.4183C18.8154 34.3846 18.8793 34.3337 18.9286 34.27C18.9779 34.2063 19.0111 34.1316 19.0253 34.0523C19.0545 33.8912 19.0009 33.7277 18.8862 33.613L16.383 31.1141ZM14.2921 27.7659C14.3921 27.7659 14.4922 27.7342 14.5776 27.6756C14.7118 27.5829 14.7923 27.4291 14.7923 27.2656L14.7898 23.7295C14.7898 23.6492 14.7705 23.57 14.7333 23.4987C14.6962 23.4275 14.6424 23.3662 14.5765 23.3202C14.5106 23.2742 14.4346 23.2448 14.355 23.2345C14.2753 23.2242 14.1943 23.2333 14.1189 23.261L9.32717 25.0302C9.23123 25.0654 9.1484 25.1292 9.08989 25.213C9.03138 25.2968 9 25.3966 9 25.4988C9 25.601 9.03138 25.7007 9.08989 25.7845C9.1484 25.8683 9.23123 25.9321 9.32717 25.9673L14.1213 27.7342C14.1774 27.7561 14.2336 27.7659 14.2921 27.7659ZM15.5803 19.7395C15.6141 19.8126 15.665 19.8765 15.7288 19.9257C15.7926 19.9749 15.8673 20.008 15.9466 20.0221C16.0258 20.0363 16.1074 20.0311 16.1842 20.0069C16.261 19.9828 16.3309 19.9404 16.3879 19.8835L18.8862 17.3821C19.0009 17.265 19.0521 17.1015 19.0228 16.9404C18.9936 16.7818 18.8886 16.6451 18.7398 16.5768L14.0994 14.439C13.9091 14.3512 13.687 14.3927 13.5382 14.5415C13.3894 14.6904 13.3504 14.9125 13.4382 15.1028L15.5803 19.7395Z" fill="white"/>
<path d="M39.5638 107.349C39.8613 106.64 39.011 106.036 38.2979 106.351C36.8725 106.977 35.3323 107.299 33.7756 107.296C27.6725 107.296 22.7258 102.449 22.7258 96.4683C22.7236 94.449 23.2973 92.471 24.3796 90.7663C24.7937 90.1129 24.2965 89.2088 23.5381 89.4013C17.6917 90.8931 13.375 96.1023 13.375 102.299C13.375 109.659 19.4635 115.625 26.9754 115.625C32.6629 115.625 37.5338 112.205 39.5638 107.349Z" fill="#4D4D4D"/>
<path d="M31.766 89.5252C30.9931 89.009 30.0715 89.9306 30.5862 90.7035L31.505 92.0817C31.8777 92.6404 32.0766 93.2971 32.0766 93.9688C32.0766 94.6404 31.8777 95.2971 31.505 95.8558L30.5862 97.234C30.0715 98.0069 30.9946 98.9285 31.7675 98.4123L33.1442 97.4935C33.7029 97.1208 34.3596 96.9219 35.0312 96.9219C35.7029 96.9219 36.3595 97.1208 36.9183 97.4935L38.2965 98.4123C39.0694 98.9285 39.991 98.0069 39.4748 97.234L38.556 95.8558C38.1833 95.2971 37.9844 94.6404 37.9844 93.9688C37.9844 93.2971 38.1833 92.6404 38.556 92.0817L39.4748 90.444C39.991 89.671 39.0694 89.009 38.295 89.5252L36.9183 90.444C36.3595 90.8167 35.7029 91.0156 35.0312 91.0156C34.3596 91.0156 33.7029 90.8167 33.1442 90.444L31.766 89.5252Z" fill="#4D4D4D"/>
</g>
<defs>
<clipPath id="clip0_1_44">
<rect width="48" height="128" fill="white"/>
</clipPath>
</defs>
</svg>
