<svg width="675" height="234" viewBox="0 0 675 234" fill="none" xmlns="http://www.w3.org/2000/svg">
<path d="M84.56 0L0 91.81L70.47 148.3L0 204.8L28.19 233.05L112.75 141.24L42.28 84.74L112.75 28.25L84.56 0Z" fill="#FC4E34"/>
<path d="M212.63 38.03C212.63 55.58 201.45 79.03 173.13 79.03H167.91L163.07 102.03H140.21L158.72 14.25H185.8C202.32 14.25 212.63 22.48 212.63 38.03ZM175.86 59.59C185.43 59.59 189.53 48.18 189.53 42.04C189.53 36.77 186.92 33.64 182.2 33.64H177.35L171.89 59.64L175.86 59.59Z" fill="#606060"/>
<path d="M266.42 101.98H244.06L244.18 88.56H224.06L218.47 101.98H194.24L234.49 14.25H263.19L266.42 101.98ZM230.77 72.38H244.18L244.43 40.03H244.31L230.77 72.38Z" fill="#606060"/>
<path d="M341.55 14.25H363.78L348.88 102.03H327.41L334.49 60.1498L314.36 102.03H305.29L302.93 60.1498L292.25 101.98H270.64L292.64 14.2H313.89L317.99 60.8499L341.55 14.25Z" fill="#606060"/>
<path d="M423.67 34.01H395.23L392.23 48.31H416.46L412.61 66.74H388.27L385.04 82.17H414.23L410.13 101.98H358.33L376.84 14.25H427.77L423.67 34.01Z" fill="#606060"/>
<path d="M136.66 215.25L143.12 196.06C148.756 198.725 154.888 200.18 161.12 200.33C167.33 200.33 171.18 197.44 171.18 192.93C171.18 188.79 168.45 186.03 163.97 182.52C155.53 177.52 148.97 170.98 148.97 159.95C148.97 142.02 162.76 129.1 182.51 129.1C190.96 129.1 199.03 130.86 204.75 133.74L198.16 153.18C193.511 150.635 188.31 149.261 183.01 149.18C176.8 149.18 173.69 152.44 173.69 156.83C173.69 160.6 176.3 163.61 180.9 166.99C189.59 171.88 195.68 179.28 195.68 189.44C195.68 207.75 181.68 220.29 162.14 220.29C152.06 220.25 143.86 218.48 136.66 215.25Z" fill="#606060"/>
<path d="M202.61 189.89C202.61 163.89 218.02 129.2 249.61 129.2C256.466 129.162 263.204 130.98 269.11 134.46L259.42 154.02C255.84 151.573 251.586 150.304 247.25 150.39C233.34 150.39 226.5 174.84 226.5 186.63C226.5 195.03 230.35 198.92 236.44 198.92C241.578 198.894 246.625 197.555 251.1 195.03L252.55 214.84C246.144 218.196 239.041 220.001 231.81 220.11C213.55 220.11 202.61 208.95 202.61 189.89Z" fill="#606060"/>
<path d="M318.38 130.7H341.49L323.11 218.48H300L307 185H289.69L282.61 218.48H259.55L278.06 130.7H301.17L293.96 164.7H311.35L318.38 130.7Z" fill="#606060"/>
<path d="M339.55 190.14L352.09 130.7H374.83L362.41 189.89C361.41 194.65 361.78 199.89 367.99 199.89C372.99 199.89 376.69 196.63 378.06 189.89L390.55 130.7H413.16L400.74 190.14C396.74 208.57 383.1 220.14 364.09 220.14C342.35 220.11 336.27 205.69 339.55 190.14Z" fill="#606060"/>
<path d="M459.37 187.51L466.7 218.51H442.85L437.85 192.51H433.37L427.91 218.51H405.08L423.55 130.7H450.88C467.65 130.7 477.96 138.85 477.96 153.27C478 165.44 472.55 179.98 459.37 187.51ZM442.22 150.14L437.38 173.46H441.38C450.83 173.46 454.92 163.81 454.92 158.04C454.92 153.27 452.32 150.14 447.35 150.14H442.22Z" fill="#606060"/>
<path d="M527.68 187.51L535.01 218.51H511.16L506.16 192.51H501.69L496.23 218.51H473.4L491.91 130.73H519.24C536.01 130.73 546.32 138.88 546.32 153.3C546.32 165.44 540.85 179.98 527.68 187.51ZM510.55 150.14L505.71 173.46H509.71C519.15 173.46 523.25 163.81 523.25 158.04C523.25 153.27 520.64 150.14 515.68 150.14H510.55Z" fill="#606060"/>
<path d="M607.06 150.51H578.61L575.61 164.81H599.85L596 183.25H571.65L568.42 198.68H597.62L593.55 218.48H541.71L560.22 130.7H611.16L607.06 150.51Z" fill="#606060"/>
<path d="M656.37 187.51L663.7 218.51H639.85L634.85 192.51H630.37L624.91 218.51H602.08L620.55 130.7H647.88C664.65 130.7 674.96 138.85 674.96 153.27C675 165.44 669.55 179.98 656.37 187.51ZM639.23 150.14L634.38 173.46H638.38C647.82 173.46 651.92 163.81 651.92 158.04C651.92 153.27 649.31 150.14 644.34 150.14H639.23Z" fill="#606060"/>
</svg>
